<svg width="118" height="116" viewBox="0 0 118 116" fill="none" xmlns="http://www.w3.org/2000/svg">
<g clip-path="url(#clip0_505_2081)">
<rect width="118" height="116" rx="58" fill="#E3F2F1"/>
<path d="M69.2668 62.715C69.2668 62.715 63.4994 72.8595 57.6387 79.8612C55.3082 82.6483 52.962 84.9374 50.9604 85.8922C49.0006 86.8262 47.3417 88.2777 45.9694 89.8858C42.4137 94.0504 40.773 99.2641 40.773 99.2641L25.7964 79.3378C25.7964 79.3378 26.3075 59.8588 28.1063 56.6005C30.728 51.8523 31.9944 42.2584 33.0016 40.3483C33.7489 38.9314 35.8826 31.6123 36.0903 31.0745C36.1787 30.8429 36.8891 30.4888 37.8109 30.4888C38.551 30.4888 39.8095 31.1176 40.1238 32.4095C41.7257 38.9404 39.7974 43.2483 39.821 43.4394C40.3861 48.4587 38.6873 52.1845 39.8785 53.1712C39.9233 53.2074 40.0051 53.1904 40.1208 53.1249C42.186 51.9593 55.0042 35.5283 56.5831 35.1736C58.2443 34.7993 69.2668 62.715 69.2668 62.715Z" fill="#EFA26F"/>
<path d="M45.2819 95.3216C45.2819 95.3216 45.0778 104.177 44.4945 116.104H6.70557C15.3431 99.9085 22.8529 86.2778 22.8529 86.2778C22.8529 86.2778 44.3692 86.8556 45.2819 95.3216Z" fill="#128C7E"/>
<path d="M82.3623 28.3833L77.7231 34.3626L73.1706 40.2306C72.8932 40.5251 72.5716 40.6279 72.224 40.598C71.1339 40.507 69.7803 39.122 68.7271 38.3547L68.6199 38.2775C67.9525 37.7891 67.5321 37.0883 67.4504 36.3283C67.3687 35.5682 67.6324 34.8106 68.1838 34.221L75.1419 26.8257L77.2053 24.6329C77.7606 24.046 78.5576 23.6761 79.4221 23.6042C80.2866 23.5322 81.1483 23.7641 81.819 24.249L81.9262 24.3262C82.5935 24.8148 83.0139 25.5156 83.0956 26.2757C83.1773 27.0358 82.9136 27.7934 82.3623 28.3833Z" fill="#FFB27D"/>
<path d="M77.7257 34.3625L73.1732 40.2306C72.8958 40.525 72.5742 40.6278 72.2266 40.598L75.1445 26.8257C75.1505 26.9029 75.6466 33.0824 77.7257 34.3625Z" fill="#EFA26F"/>
<path d="M57.6404 79.8624C55.3099 82.6494 52.9637 84.9386 50.9621 85.8934C49.0023 86.8273 47.3434 88.2789 45.9711 89.887C44.3922 89.2401 42.5923 88.4807 40.8329 87.7288C38.6908 86.8135 38.6084 84.1393 40.7069 83.1494C40.7275 83.1398 40.7475 83.1303 40.7675 83.1201C42.734 82.1313 44.7483 78.6382 44.7483 78.6382L57.6404 79.8624Z" fill="#D38254"/>
<path d="M35.9798 31.3779L34.7686 35.6868C34.7686 35.6868 35.8296 36.0686 36.511 35.772C37.1923 35.4754 37.7464 31.6101 35.9798 31.3779Z" fill="#FFC197"/>
<path d="M70.8875 23.2466H44.7866C42.2084 23.2466 40.1184 25.0842 40.1184 27.351V77.7943C40.1184 80.0611 42.2084 81.8987 44.7866 81.8987H70.8875C73.4657 81.8987 75.5557 80.0611 75.5557 77.7943V27.351C75.5557 25.0842 73.4657 23.2466 70.8875 23.2466Z" fill="#0B1838"/>
<path d="M73.7993 27.7391V77.0136C73.7993 78.685 72.2549 80.0525 70.3684 80.0525H45.3055C43.419 80.0525 41.8752 78.685 41.8752 77.0136V27.7391C41.8752 26.0676 43.419 24.7002 45.3055 24.7002H70.3708C72.2549 24.7002 73.7993 26.0676 73.7993 27.7391Z" fill="#EAF2FF"/>
<path d="M63.0746 23.5903H52.6002C51.7433 23.5903 51.0486 24.2011 51.0486 24.9546V25.1686C51.0486 25.9221 51.7433 26.5329 52.6002 26.5329H63.0746C63.9316 26.5329 64.6262 25.9221 64.6262 25.1686V24.9546C64.6262 24.2011 63.9316 23.5903 63.0746 23.5903Z" fill="#0B1838"/>
<path d="M80.0554 50.9643L79.3638 51.1932L74.7113 52.7476C74.6037 52.7838 74.4936 52.8144 74.3819 52.8392C73.6272 53.0092 72.8279 52.9296 72.1356 52.6154C71.4434 52.3013 70.9065 51.7745 70.627 51.1352L70.5585 50.9781C70.2625 50.2872 70.2895 49.5214 70.6336 48.848C70.9776 48.1745 71.6108 47.6482 72.3948 47.3838L76.7299 45.9349L77.0448 45.8284L77.7365 45.5973C78.5221 45.3371 79.3929 45.3608 80.1586 45.6634C80.9244 45.9659 81.5229 46.5226 81.8233 47.2118L81.8917 47.3716C82.1871 48.0622 82.1599 48.8276 81.8158 49.5007C81.4718 50.1738 80.839 50.6999 80.0554 50.9643Z" fill="#FFB27D"/>
<path d="M76.2774 51.0578C75.501 51.3166 74.0971 51.7756 73.3437 51.8704C73.1311 51.8976 72.7381 51.7959 72.3747 51.4444C72.1549 51.2314 71.9453 50.9332 71.7897 50.5168C71.7134 50.3248 71.66 50.1264 71.6304 49.9247C71.601 49.69 71.6095 49.4528 71.6558 49.2202C71.6797 49.1117 71.7323 49.0097 71.8094 48.9224C71.8866 48.8352 71.986 48.7652 72.0998 48.7181C72.0998 48.7181 72.0997 48.7181 72.1034 48.7181C72.9028 48.3821 73.9808 47.9726 74.9244 47.7452C75.5779 47.5855 76.2386 47.84 76.4452 48.3427L76.5427 48.5775L77.0423 49.7799C77.2476 50.2767 76.9115 50.8475 76.2774 51.0578Z" fill="#FFD3B6"/>
<path d="M76.2775 51.0581C75.5011 51.3169 74.0972 51.7759 73.3438 51.8707C73.1312 51.8979 72.7382 51.7962 72.3748 51.4447C72.3354 51.3648 72.2997 51.2802 72.2658 51.1902C72.1895 50.998 72.1361 50.7994 72.1065 50.5975C72.0774 50.363 72.0859 50.126 72.1319 49.8936C72.1559 49.7851 72.2086 49.683 72.2857 49.5957C72.3628 49.5084 72.4622 49.4382 72.5759 49.3909C72.5759 49.3909 72.5758 49.3909 72.5795 49.3909C73.3789 49.0554 74.4569 48.6454 75.4011 48.4186C75.5929 48.3683 75.795 48.3566 75.9926 48.3842C76.1902 48.4119 76.3782 48.4782 76.5427 48.5783L77.0424 49.7807C77.2477 50.277 76.9116 50.8478 76.2775 51.0581Z" fill="#FFC197"/>
<path d="M77.9442 56.7148L74.3571 57.5737C73.8314 57.6984 73.2709 57.6349 72.7983 57.3972C72.3257 57.1595 71.9794 56.7669 71.8352 56.3053L71.7244 55.9485C71.5826 55.4864 71.6548 54.9936 71.9251 54.5781C72.1955 54.1625 72.642 53.8581 73.167 53.7313L76.7548 52.8724C77.28 52.7485 77.8397 52.8123 78.3116 53.05C78.7835 53.2876 79.1293 53.6797 79.2736 54.1407L79.3844 54.498C79.5261 54.9599 79.4542 55.4522 79.1843 55.8676C78.9145 56.2829 78.4687 56.5875 77.9442 56.7148Z" fill="#FFB27D"/>
<path d="M76.0031 56.56C75.3441 56.7145 74.1528 56.986 73.5284 57.0175C73.3013 57.0286 72.8465 56.8577 72.5497 56.3348C72.4705 56.193 72.4096 56.0439 72.368 55.8902C72.3216 55.7387 72.2948 55.5831 72.2881 55.4264C72.2835 55.2439 72.3104 55.0618 72.368 54.8864C72.3985 54.8025 72.4512 54.726 72.5217 54.6634C72.5922 54.6007 72.6786 54.5536 72.7738 54.5259C73.4576 54.3129 74.3757 54.06 75.1703 53.9402C75.719 53.8555 76.2392 54.0877 76.3676 54.4855L76.4603 54.7693L76.7365 55.6213C76.8667 56.0142 76.5427 56.4344 76.0031 56.56Z" fill="#FFD3B6"/>
<path d="M76.0032 56.5603C75.3443 56.7148 74.153 56.9863 73.5286 57.0178C73.3015 57.0289 72.8466 56.858 72.5499 56.3351C72.5077 56.1929 72.4835 56.047 72.4778 55.9001C72.4732 55.7176 72.5001 55.5355 72.5577 55.3601C72.5883 55.2763 72.6409 55.1999 72.7113 55.1373C72.7817 55.0746 72.8679 55.0275 72.9629 54.9996C72.9629 54.9996 72.9629 54.9996 72.9665 54.9996C73.6503 54.7866 74.5684 54.5342 75.363 54.4139C75.8173 54.3436 76.2521 54.4911 76.4616 54.7691L76.7378 55.621C76.8668 56.0145 76.5428 56.4347 76.0032 56.5603Z" fill="#FFC197"/>
<path d="M19.1743 92.9963C19.1743 92.9963 26.5582 99.2147 31.5365 101.616L35.3047 99.2653V102.732C35.3047 102.732 42.717 103.885 45.0554 102.732V93.2769L24.2362 84.1011L19.1743 92.9963Z" fill="#065B52"/>
<path d="M25.796 78.6367C25.796 78.6367 21.1066 84.8051 16.4463 91.4C16.4463 91.4 26.2678 97.3404 31.5931 99.0833L38.5749 92.0496L37.5774 100.516C37.5774 100.516 43.7591 102.497 46.6267 101.98C46.6267 101.98 46.445 94.2994 46.445 89.2668C46.4481 89.2663 29.4565 85.0793 25.796 78.6367Z" fill="#F3F8FF"/>
<path d="M26.9471 94.2896C26.9491 94.0874 27.0194 93.8902 27.1489 93.723C27.2784 93.5559 27.4615 93.4263 27.6748 93.3506C27.8882 93.2749 28.1223 93.2566 28.3475 93.2979C28.5727 93.3393 28.7789 93.4384 28.9399 93.5828C29.101 93.7272 29.2098 93.9104 29.2525 94.1092C29.2951 94.3079 29.2698 94.5133 29.1796 94.6994C29.0895 94.8855 28.9385 95.0439 28.746 95.1546C28.5534 95.2652 28.3278 95.3232 28.0978 95.3211C27.7897 95.3181 27.4956 95.2079 27.2799 95.0145C27.0642 94.8212 26.9445 94.5605 26.9471 94.2896Z" fill="#128C7E"/>
<path d="M79.9398 44.919L79.8623 44.9419L75.159 46.0037C73.0907 46.4712 70.9522 45.4872 70.4066 43.8205L70.1286 42.9621C69.6035 41.3593 70.7342 39.683 72.6529 39.1393L74.2057 38.789L77.355 38.0776C79.4226 37.6106 81.5617 38.5946 82.1074 40.264L82.3872 41.1191C82.9074 42.7006 81.8173 44.3524 79.9398 44.919Z" fill="#FFB27D"/>
<path d="M77.7867 43.7643L75.5016 44.6695L75.4871 44.6727C75.3962 44.6941 75.304 44.7108 75.2109 44.7228C75.1728 44.7281 75.1334 44.7318 75.0952 44.7356C75.0791 44.7369 75.0629 44.7369 75.0468 44.7356C74.9873 44.7334 74.9294 44.7184 74.878 44.6919C74.8267 44.6654 74.7835 44.6282 74.7524 44.5836C74.7212 44.539 74.703 44.4884 74.6993 44.4361C74.6956 44.3839 74.7066 44.3317 74.7313 44.284C74.9554 43.8575 75.0012 43.3752 74.8609 42.9219L74.8064 42.7467C74.8065 42.745 74.8065 42.7432 74.8064 42.7414L74.6295 42.1711C74.4942 41.7332 74.204 41.3444 73.801 41.0609C73.7544 41.0273 73.7059 40.9959 73.6569 40.9661C73.2051 40.6908 73.3201 40.0678 73.8489 39.9389L73.8634 39.9352L76.3707 39.6013C76.9909 39.4533 77.588 39.8729 77.757 40.4181L77.9587 41.0678L78.3875 42.4523C78.554 42.9991 78.4068 43.6163 77.7867 43.7643Z" fill="#FFD3B6"/>
<path d="M77.7867 43.7645L75.5016 44.6697L75.4871 44.6729C75.4338 44.6819 75.266 44.7064 75.0468 44.7362C74.9873 44.7341 74.9294 44.7191 74.878 44.6926C74.8267 44.6661 74.7836 44.6289 74.7524 44.5843C74.7212 44.5397 74.703 44.489 74.6993 44.4368C74.6956 44.3846 74.7066 44.3323 74.7313 44.2847C74.9554 43.8582 75.0013 43.3759 74.8609 42.9226L74.8064 42.7474C74.8066 42.7456 74.8066 42.7438 74.8064 42.7421L74.6295 42.1718C74.4942 41.7338 74.2041 41.345 73.801 41.0615C73.8867 40.9513 74.0142 40.8714 74.1608 40.8363L74.1753 40.8326L76.6832 40.4992C77.2053 40.3746 77.7128 40.6526 77.9587 41.0685L78.3875 42.4529C78.554 42.9993 78.4068 43.6164 77.7867 43.7645Z" fill="#FFC197"/>
<path d="M40.1184 66.4292C40.1184 66.4292 39.0925 58.5542 38.1459 57.0185C37.1993 55.4828 36.398 52.4071 37.8546 50.1222C39.3111 47.8373 39.8138 43.4395 39.8138 43.4395C40.3788 48.4587 38.68 52.1845 39.8713 53.1712C39.9161 53.2074 39.9979 53.1904 40.1136 53.1249L40.1184 66.4292Z" fill="#D38254"/>
<g clip-path="url(#clip1_505_2081)">
<path d="M48.8391 69.9016L50.2041 64.7557C49.362 63.2497 48.9191 61.5411 48.9197 59.7912C48.9219 54.3159 53.2379 49.8613 58.5409 49.8613C61.1147 49.8625 63.5303 50.8967 65.3466 52.7737C67.1632 54.6507 68.1631 57.1456 68.162 59.799C68.1598 65.2744 63.8436 69.7294 58.5412 69.7294C58.5409 69.7294 58.5415 69.7294 58.5412 69.7294H58.537C56.9268 69.7288 55.3447 69.3115 53.9395 68.5208L48.8391 69.9016Z" fill="#128C7E"/>
<path fill-rule="evenodd" clip-rule="evenodd" d="M56.0508 55.4879C55.8643 55.0597 55.6679 55.0511 55.4904 55.0436C55.3453 55.0372 55.1791 55.0376 55.0132 55.0376C54.8472 55.0376 54.5774 55.102 54.3492 55.3593C54.1209 55.6166 53.4775 56.2385 53.4775 57.5035C53.4775 58.7685 54.37 59.9909 54.4944 60.1626C54.6189 60.334 56.2171 63.0128 58.7482 64.0434C60.8518 64.8998 61.2799 64.7295 61.7365 64.6866C62.1931 64.6438 63.2098 64.0648 63.4173 63.4644C63.6248 62.8641 63.6248 62.3496 63.5626 62.242C63.5003 62.1349 63.3343 62.0706 63.0852 61.9421C62.8362 61.8135 61.6119 61.1914 61.3836 61.1057C61.1553 61.02 60.9893 60.9771 60.8233 61.2345C60.6572 61.4917 60.1803 62.0706 60.035 62.242C59.8897 62.4139 59.7444 62.4353 59.4954 62.3067C59.2463 62.1778 58.4443 61.9066 57.4929 61.0307C56.7526 60.3492 56.2528 59.5076 56.1075 59.2502C55.9622 58.9931 56.0919 58.8538 56.2168 58.7257C56.3287 58.6105 56.4659 58.4255 56.5904 58.2754C56.7147 58.1252 56.7562 58.0181 56.8392 57.8467C56.9222 57.675 56.8807 57.5249 56.8185 57.3963C56.7562 57.2677 56.2722 55.9963 56.0508 55.4879Z" fill="white"/>
</g>
</g>
<defs>
<clipPath id="clip0_505_2081">
<rect width="118" height="116" rx="58" fill="white"/>
</clipPath>
<clipPath id="clip1_505_2081">
<rect width="20.25" height="21" fill="white" transform="translate(48.375 49.5)"/>
</clipPath>
</defs>
</svg>
