<svg width="482" height="50" viewBox="0 0 482 50" fill="none" xmlns="http://www.w3.org/2000/svg">
<rect width="482" height="50" rx="12" fill="#FEECDC"/>
<path d="M40.4234 22.4476V20.3006C40.4234 17.7876 38.3854 15.7496 35.8724 15.7496C33.3594 15.7386 31.3134 17.7666 31.3024 20.2806V20.3006V22.4476" stroke="#312E40" stroke-width="1.5" stroke-linecap="round" stroke-linejoin="round"/>
<path fill-rule="evenodd" clip-rule="evenodd" d="M39.6832 34.2495H32.0422C29.9482 34.2495 28.2502 32.5525 28.2502 30.4575V26.1685C28.2502 24.0735 29.9482 22.3765 32.0422 22.3765H39.6832C41.7772 22.3765 43.4752 24.0735 43.4752 26.1685V30.4575C43.4752 32.5525 41.7772 34.2495 39.6832 34.2495Z" stroke="#312E40" stroke-width="1.5" stroke-linecap="round" stroke-linejoin="round"/>
<path d="M35.8629 27.2026V29.4236" stroke="#312E40" stroke-width="1.5" stroke-linecap="round" stroke-linejoin="round"/>
<path d="M62.03 16.55C61.65 16.55 61.3067 16.6167 61 16.75C60.6933 16.8767 60.4333 17.0667 60.22 17.32C60.0067 17.5667 59.8433 17.87 59.73 18.23C59.6167 18.5833 59.56 18.9833 59.56 19.43C59.56 20.0167 59.65 20.5267 59.83 20.96C60.0167 21.3933 60.29 21.7267 60.65 21.96C61.0167 22.1933 61.4733 22.31 62.02 22.31C62.3333 22.31 62.63 22.2833 62.91 22.23C63.19 22.1767 63.4633 22.11 63.73 22.03V22.81C63.4633 22.91 63.1867 22.9833 62.9 23.03C62.62 23.0767 62.2833 23.1 61.89 23.1C61.1633 23.1 60.5567 22.95 60.07 22.65C59.5833 22.35 59.2167 21.9233 58.97 21.37C58.73 20.8167 58.61 20.1667 58.61 19.42C58.61 18.88 58.6833 18.3867 58.83 17.94C58.9833 17.4933 59.2033 17.1067 59.49 16.78C59.7833 16.4533 60.1433 16.2033 60.57 16.03C60.9967 15.85 61.4867 15.76 62.04 15.76C62.4067 15.76 62.76 15.7967 63.1 15.87C63.44 15.9433 63.7433 16.0467 64.01 16.18L63.65 16.94C63.43 16.84 63.1833 16.75 62.91 16.67C62.6433 16.59 62.35 16.55 62.03 16.55ZM69.8284 20.31C69.8284 20.7567 69.7684 21.1533 69.6484 21.5C69.535 21.84 69.3684 22.13 69.1484 22.37C68.935 22.61 68.6717 22.7933 68.3584 22.92C68.0517 23.04 67.7084 23.1 67.3284 23.1C66.975 23.1 66.6484 23.04 66.3484 22.92C66.0484 22.7933 65.7884 22.61 65.5684 22.37C65.3484 22.13 65.175 21.84 65.0484 21.5C64.9284 21.1533 64.8684 20.7567 64.8684 20.31C64.8684 19.7167 64.9684 19.2167 65.1684 18.81C65.3684 18.3967 65.655 18.0833 66.0284 17.87C66.4017 17.65 66.845 17.54 67.3584 17.54C67.845 17.54 68.2717 17.65 68.6384 17.87C69.0117 18.0833 69.3017 18.3967 69.5084 18.81C69.7217 19.2167 69.8284 19.7167 69.8284 20.31ZM65.7784 20.31C65.7784 20.73 65.8317 21.0967 65.9384 21.41C66.0517 21.7167 66.225 21.9533 66.4584 22.12C66.6917 22.2867 66.9884 22.37 67.3484 22.37C67.7084 22.37 68.005 22.2867 68.2384 22.12C68.4717 21.9533 68.6417 21.7167 68.7484 21.41C68.8617 21.0967 68.9184 20.73 68.9184 20.31C68.9184 19.8833 68.8617 19.52 68.7484 19.22C68.635 18.92 68.4617 18.69 68.2284 18.53C68.0017 18.3633 67.705 18.28 67.3384 18.28C66.7917 18.28 66.395 18.46 66.1484 18.82C65.9017 19.18 65.7784 19.6767 65.7784 20.31ZM75.883 20.31C75.883 20.7567 75.823 21.1533 75.703 21.5C75.5897 21.84 75.423 22.13 75.203 22.37C74.9897 22.61 74.7264 22.7933 74.413 22.92C74.1064 23.04 73.763 23.1 73.383 23.1C73.0297 23.1 72.703 23.04 72.403 22.92C72.103 22.7933 71.843 22.61 71.623 22.37C71.403 22.13 71.2297 21.84 71.103 21.5C70.983 21.1533 70.923 20.7567 70.923 20.31C70.923 19.7167 71.023 19.2167 71.223 18.81C71.423 18.3967 71.7097 18.0833 72.083 17.87C72.4564 17.65 72.8997 17.54 73.413 17.54C73.8997 17.54 74.3264 17.65 74.693 17.87C75.0664 18.0833 75.3564 18.3967 75.563 18.81C75.7764 19.2167 75.883 19.7167 75.883 20.31ZM71.833 20.31C71.833 20.73 71.8864 21.0967 71.993 21.41C72.1064 21.7167 72.2797 21.9533 72.513 22.12C72.7464 22.2867 73.043 22.37 73.403 22.37C73.763 22.37 74.0597 22.2867 74.293 22.12C74.5264 21.9533 74.6964 21.7167 74.803 21.41C74.9164 21.0967 74.973 20.73 74.973 20.31C74.973 19.8833 74.9164 19.52 74.803 19.22C74.6897 18.92 74.5164 18.69 74.283 18.53C74.0564 18.3633 73.7597 18.28 73.393 18.28C72.8464 18.28 72.4497 18.46 72.203 18.82C71.9564 19.18 71.833 19.6767 71.833 20.31ZM76.9977 19.78C76.9977 19 77.0744 18.3367 77.2277 17.79C77.3877 17.2367 77.6311 16.7967 77.9577 16.47C78.2911 16.1367 78.7177 15.9133 79.2377 15.8C79.6711 15.7067 80.0944 15.6233 80.5077 15.55C80.9211 15.4767 81.3077 15.41 81.6677 15.35L81.8177 16.12C81.6444 16.1467 81.4511 16.18 81.2377 16.22C81.0244 16.2533 80.8077 16.29 80.5877 16.33C80.3677 16.3633 80.1544 16.4 79.9477 16.44C79.7477 16.4733 79.5711 16.5067 79.4177 16.54C79.1977 16.5867 79.0011 16.6667 78.8277 16.78C78.6544 16.8867 78.5044 17.0333 78.3777 17.22C78.2577 17.4067 78.1611 17.6367 78.0877 17.91C78.0144 18.1833 77.9711 18.5067 77.9577 18.88H78.0177C78.1111 18.7533 78.2377 18.6233 78.3977 18.49C78.5644 18.3567 78.7611 18.2433 78.9877 18.15C79.2211 18.0567 79.4844 18.01 79.7777 18.01C80.2444 18.01 80.6311 18.1133 80.9377 18.32C81.2511 18.52 81.4844 18.8 81.6377 19.16C81.7977 19.52 81.8777 19.94 81.8777 20.42C81.8777 21.0133 81.7744 21.51 81.5677 21.91C81.3611 22.31 81.0744 22.61 80.7077 22.81C80.3411 23.0033 79.9144 23.1 79.4277 23.1C79.0611 23.1 78.7277 23.03 78.4277 22.89C78.1277 22.7433 77.8711 22.53 77.6577 22.25C77.4444 21.97 77.2811 21.6233 77.1677 21.21C77.0544 20.7967 76.9977 20.32 76.9977 19.78ZM79.4977 22.37C79.7911 22.37 80.0444 22.31 80.2577 22.19C80.4777 22.07 80.6477 21.8733 80.7677 21.6C80.8877 21.3267 80.9477 20.9633 80.9477 20.51C80.9477 19.9633 80.8444 19.5333 80.6377 19.22C80.4377 18.9 80.1044 18.74 79.6377 18.74C79.3444 18.74 79.0777 18.8067 78.8377 18.94C78.5977 19.0667 78.3977 19.2133 78.2377 19.38C78.0777 19.5467 77.9644 19.6867 77.8977 19.8C77.8977 20.1267 77.9211 20.4433 77.9677 20.75C78.0144 21.0567 78.0944 21.3333 78.2077 21.58C78.3277 21.82 78.4911 22.0133 78.6977 22.16C78.9111 22.3 79.1777 22.37 79.4977 22.37ZM90.5241 17.64V22.27H91.3041V24.85H90.4241V23H83.2641V17.64H84.1441V22.26H86.4541V17.64H87.3341V22.26H89.6541V17.64H90.5241ZM94.3966 17.54C94.8566 17.54 95.2499 17.64 95.5766 17.84C95.9099 18.04 96.1632 18.3233 96.3366 18.69C96.5166 19.05 96.6066 19.4733 96.6066 19.96V20.49H92.9366C92.9499 21.0967 93.1032 21.56 93.3966 21.88C93.6966 22.1933 94.1132 22.35 94.6466 22.35C94.9866 22.35 95.2866 22.32 95.5466 22.26C95.8132 22.1933 96.0866 22.1 96.3666 21.98V22.75C96.0932 22.87 95.8232 22.9567 95.5566 23.01C95.2899 23.07 94.9732 23.1 94.6066 23.1C94.0999 23.1 93.6499 22.9967 93.2566 22.79C92.8699 22.5833 92.5666 22.2767 92.3466 21.87C92.1332 21.4567 92.0266 20.9533 92.0266 20.36C92.0266 19.7733 92.1232 19.27 92.3166 18.85C92.5166 18.43 92.7932 18.1067 93.1466 17.88C93.5066 17.6533 93.9232 17.54 94.3966 17.54ZM94.3866 18.26C93.9666 18.26 93.6332 18.3967 93.3866 18.67C93.1466 18.9367 93.0032 19.31 92.9566 19.79H95.6866C95.6866 19.4833 95.6399 19.2167 95.5466 18.99C95.4532 18.7633 95.3099 18.5867 95.1166 18.46C94.9299 18.3267 94.6866 18.26 94.3866 18.26ZM98.8511 17.64V19.87H101.761V17.64H102.641V23H101.761V20.61H98.8511V23H97.9711V17.64H98.8511ZM105.168 20.91C105.168 20.97 105.165 21.0567 105.158 21.17C105.158 21.2767 105.155 21.3933 105.148 21.52C105.142 21.64 105.135 21.7567 105.128 21.87C105.122 21.9767 105.115 22.0633 105.108 22.13L107.978 17.64H109.058V23H108.238V19.84C108.238 19.7333 108.238 19.5933 108.238 19.42C108.245 19.2467 108.252 19.0767 108.258 18.91C108.265 18.7367 108.272 18.6067 108.278 18.52L105.428 23H104.338V17.64H105.168V20.91ZM111.094 23H110.074L111.604 20.75C111.397 20.6967 111.197 20.6133 111.004 20.5C110.811 20.38 110.654 20.2167 110.534 20.01C110.414 19.7967 110.354 19.5333 110.354 19.22C110.354 18.7067 110.527 18.3167 110.874 18.05C111.221 17.7767 111.681 17.64 112.254 17.64H114.654V23H113.774V20.87H112.474L111.094 23ZM111.204 19.23C111.204 19.5367 111.317 19.7667 111.544 19.92C111.777 20.0667 112.101 20.14 112.514 20.14H113.774V18.37H112.344C111.937 18.37 111.644 18.45 111.464 18.61C111.291 18.77 111.204 18.9767 111.204 19.23ZM125.319 17.64V23H118.049V17.64H118.929V22.26H121.239V17.64H122.119V22.26H124.439V17.64H125.319ZM127.864 20.91C127.864 20.97 127.86 21.0567 127.854 21.17C127.854 21.2767 127.85 21.3933 127.844 21.52C127.837 21.64 127.83 21.7567 127.824 21.87C127.817 21.9767 127.81 22.0633 127.804 22.13L130.674 17.64H131.754V23H130.934V19.84C130.934 19.7333 130.934 19.5933 130.934 19.42C130.94 19.2467 130.947 19.0767 130.954 18.91C130.96 18.7367 130.967 18.6067 130.974 18.52L128.124 23H127.034V17.64H127.864V20.91ZM136.659 17.56C137.193 17.6067 137.656 17.7467 138.049 17.98C138.449 18.2133 138.759 18.5267 138.979 18.92C139.199 19.3133 139.309 19.78 139.309 20.32C139.309 20.86 139.203 21.33 138.989 21.73C138.776 22.1233 138.473 22.4367 138.079 22.67C137.686 22.8967 137.213 23.0333 136.659 23.08V25.4H135.799V23.08C135.273 23.0333 134.809 22.8967 134.409 22.67C134.009 22.4367 133.699 22.1233 133.479 21.73C133.259 21.33 133.149 20.86 133.149 20.32C133.149 19.7733 133.256 19.3033 133.469 18.91C133.683 18.51 133.989 18.1967 134.389 17.97C134.789 17.7367 135.269 17.6 135.829 17.56V15.4H136.659V17.56ZM135.829 18.29C135.423 18.33 135.089 18.4333 134.829 18.6C134.569 18.7667 134.376 18.9933 134.249 19.28C134.129 19.5667 134.069 19.9133 134.069 20.32C134.069 20.72 134.129 21.0667 134.249 21.36C134.376 21.6467 134.569 21.8767 134.829 22.05C135.089 22.2167 135.423 22.32 135.829 22.36V18.29ZM136.659 22.36C137.059 22.3133 137.386 22.2067 137.639 22.04C137.899 21.8733 138.089 21.6467 138.209 21.36C138.336 21.0667 138.399 20.72 138.399 20.32C138.399 19.92 138.336 19.5767 138.209 19.29C138.083 19.0033 137.889 18.7767 137.629 18.61C137.376 18.4433 137.053 18.34 136.659 18.3V22.36ZM143.255 17.54C143.915 17.54 144.445 17.77 144.845 18.23C145.252 18.69 145.455 19.3833 145.455 20.31C145.455 20.9167 145.362 21.43 145.175 21.85C144.995 22.2633 144.739 22.5767 144.405 22.79C144.079 22.9967 143.692 23.1 143.245 23.1C142.972 23.1 142.729 23.0633 142.515 22.99C142.302 22.9167 142.119 22.8233 141.965 22.71C141.819 22.59 141.692 22.46 141.585 22.32H141.525C141.539 22.4333 141.552 22.5767 141.565 22.75C141.579 22.9233 141.585 23.0733 141.585 23.2V25.4H140.705V17.64H141.425L141.545 18.37H141.585C141.692 18.2167 141.819 18.0767 141.965 17.95C142.119 17.8233 142.299 17.7233 142.505 17.65C142.719 17.5767 142.969 17.54 143.255 17.54ZM143.095 18.28C142.735 18.28 142.445 18.35 142.225 18.49C142.005 18.6233 141.845 18.8267 141.745 19.1C141.645 19.3733 141.592 19.72 141.585 20.14V20.31C141.585 20.75 141.632 21.1233 141.725 21.43C141.819 21.7367 141.975 21.97 142.195 22.13C142.422 22.29 142.729 22.37 143.115 22.37C143.442 22.37 143.709 22.28 143.915 22.1C144.129 21.92 144.285 21.6767 144.385 21.37C144.492 21.0567 144.545 20.7 144.545 20.3C144.545 19.6867 144.425 19.1967 144.185 18.83C143.952 18.4633 143.589 18.28 143.095 18.28ZM145.92 17.64H146.86L148.02 20.69C148.087 20.87 148.147 21.0433 148.2 21.21C148.26 21.3767 148.313 21.54 148.36 21.7C148.407 21.8533 148.443 22.0033 148.47 22.15H148.51C148.55 21.9833 148.613 21.7667 148.7 21.5C148.787 21.2267 148.877 20.9533 148.97 20.68L150.06 17.64H151.01L148.7 23.74C148.573 24.0733 148.423 24.3633 148.25 24.61C148.083 24.8633 147.877 25.0567 147.63 25.19C147.39 25.33 147.097 25.4 146.75 25.4C146.59 25.4 146.45 25.39 146.33 25.37C146.21 25.3567 146.107 25.34 146.02 25.32V24.62C146.093 24.6333 146.18 24.6467 146.28 24.66C146.387 24.6733 146.497 24.68 146.61 24.68C146.817 24.68 146.993 24.64 147.14 24.56C147.293 24.4867 147.423 24.3767 147.53 24.23C147.637 24.09 147.727 23.9233 147.8 23.73L148.08 23.02L145.92 17.64ZM158.818 20.31C158.818 20.9033 158.721 21.41 158.528 21.83C158.334 22.2433 158.061 22.56 157.708 22.78C157.354 22.9933 156.934 23.1 156.448 23.1C155.994 23.1 155.598 23.0067 155.258 22.82C154.918 22.6267 154.648 22.3467 154.448 21.98C154.248 21.6067 154.131 21.15 154.098 20.61H152.738V23H151.858V17.64H152.738V19.87H154.108C154.154 19.3633 154.278 18.94 154.478 18.6C154.684 18.2533 154.954 17.99 155.288 17.81C155.628 17.63 156.021 17.54 156.468 17.54C156.928 17.54 157.334 17.65 157.688 17.87C158.041 18.0833 158.318 18.3967 158.518 18.81C158.718 19.2167 158.818 19.7167 158.818 20.31ZM154.998 20.31C154.998 20.7567 155.048 21.1333 155.148 21.44C155.254 21.7467 155.414 21.98 155.628 22.14C155.841 22.2933 156.118 22.37 156.458 22.37C156.798 22.37 157.074 22.2933 157.288 22.14C157.501 21.98 157.658 21.7467 157.758 21.44C157.858 21.1333 157.908 20.7567 157.908 20.31C157.908 19.8633 157.858 19.49 157.758 19.19C157.658 18.89 157.501 18.6633 157.288 18.51C157.074 18.3567 156.798 18.28 156.458 18.28C156.118 18.28 155.841 18.3567 155.628 18.51C155.414 18.6633 155.254 18.89 155.148 19.19C155.048 19.49 154.998 19.8633 154.998 20.31ZM163.82 18.38H162.07V23H161.2V18.38H159.47V17.64H163.82V18.38ZM166.928 23.1C166.454 23.1 166.031 23.0033 165.658 22.81C165.291 22.6167 165.001 22.3167 164.788 21.91C164.581 21.5033 164.478 20.9833 164.478 20.35C164.478 19.69 164.588 19.1533 164.808 18.74C165.028 18.3267 165.324 18.0233 165.698 17.83C166.078 17.6367 166.508 17.54 166.988 17.54C167.261 17.54 167.524 17.57 167.778 17.63C168.031 17.6833 168.238 17.75 168.398 17.83L168.128 18.56C167.968 18.5 167.781 18.4433 167.568 18.39C167.354 18.3367 167.154 18.31 166.968 18.31C166.608 18.31 166.311 18.3867 166.078 18.54C165.844 18.6933 165.671 18.92 165.558 19.22C165.444 19.52 165.388 19.8933 165.388 20.34C165.388 20.7667 165.444 21.13 165.558 21.43C165.671 21.73 165.841 21.9567 166.068 22.11C166.294 22.2633 166.578 22.34 166.918 22.34C167.211 22.34 167.468 22.31 167.688 22.25C167.914 22.19 168.121 22.1167 168.308 22.03V22.81C168.128 22.9033 167.928 22.9733 167.708 23.02C167.494 23.0733 167.234 23.1 166.928 23.1ZM169.912 23H168.892L170.422 20.75C170.216 20.6967 170.016 20.6133 169.822 20.5C169.629 20.38 169.472 20.2167 169.352 20.01C169.232 19.7967 169.172 19.5333 169.172 19.22C169.172 18.7067 169.346 18.3167 169.692 18.05C170.039 17.7767 170.499 17.64 171.072 17.64H173.472V23H172.592V20.87H171.292L169.912 23ZM170.022 19.23C170.022 19.5367 170.136 19.7667 170.362 19.92C170.596 20.0667 170.919 20.14 171.332 20.14H172.592V18.37H171.162C170.756 18.37 170.462 18.45 170.282 18.61C170.109 18.77 170.022 18.9767 170.022 19.23ZM179.018 23.1C178.544 23.1 178.121 23.0033 177.748 22.81C177.381 22.6167 177.091 22.3167 176.878 21.91C176.671 21.5033 176.568 20.9833 176.568 20.35C176.568 19.69 176.678 19.1533 176.898 18.74C177.118 18.3267 177.414 18.0233 177.788 17.83C178.168 17.6367 178.598 17.54 179.078 17.54C179.351 17.54 179.614 17.57 179.868 17.63C180.121 17.6833 180.328 17.75 180.488 17.83L180.218 18.56C180.058 18.5 179.871 18.4433 179.658 18.39C179.444 18.3367 179.244 18.31 179.058 18.31C178.698 18.31 178.401 18.3867 178.168 18.54C177.934 18.6933 177.761 18.92 177.648 19.22C177.534 19.52 177.478 19.8933 177.478 20.34C177.478 20.7667 177.534 21.13 177.648 21.43C177.761 21.73 177.931 21.9567 178.158 22.11C178.384 22.2633 178.668 22.34 179.008 22.34C179.301 22.34 179.558 22.31 179.778 22.25C180.004 22.19 180.211 22.1167 180.398 22.03V22.81C180.218 22.9033 180.018 22.9733 179.798 23.02C179.584 23.0733 179.324 23.1 179.018 23.1ZM184.842 17.64H185.802L183.512 20.22L185.992 23H184.972L182.552 20.28V23H181.672V17.64H182.552V20.24L184.842 17.64ZM191.275 18.99C191.275 19.3233 191.175 19.5833 190.975 19.77C190.775 19.9567 190.519 20.0833 190.205 20.15V20.19C190.539 20.2367 190.829 20.3567 191.075 20.55C191.322 20.7367 191.445 21.03 191.445 21.43C191.445 21.6567 191.402 21.8667 191.315 22.06C191.235 22.2533 191.109 22.42 190.935 22.56C190.762 22.7 190.539 22.81 190.265 22.89C189.992 22.9633 189.662 23 189.275 23H186.965V17.64H189.265C189.645 17.64 189.985 17.6833 190.285 17.77C190.592 17.85 190.832 17.99 191.005 18.19C191.185 18.3833 191.275 18.65 191.275 18.99ZM190.535 21.43C190.535 21.1233 190.419 20.9033 190.185 20.77C189.952 20.6367 189.609 20.57 189.155 20.57H187.845V22.29H189.175C189.615 22.29 189.952 22.2267 190.185 22.1C190.419 21.9667 190.535 21.7433 190.535 21.43ZM190.385 19.1C190.385 18.8467 190.292 18.6633 190.105 18.55C189.925 18.43 189.629 18.37 189.215 18.37H187.845V19.84H189.055C189.489 19.84 189.819 19.78 190.045 19.66C190.272 19.54 190.385 19.3533 190.385 19.1ZM197.387 20.31C197.387 20.7567 197.327 21.1533 197.207 21.5C197.094 21.84 196.927 22.13 196.707 22.37C196.494 22.61 196.23 22.7933 195.917 22.92C195.61 23.04 195.267 23.1 194.887 23.1C194.534 23.1 194.207 23.04 193.907 22.92C193.607 22.7933 193.347 22.61 193.127 22.37C192.907 22.13 192.734 21.84 192.607 21.5C192.487 21.1533 192.427 20.7567 192.427 20.31C192.427 19.7167 192.527 19.2167 192.727 18.81C192.927 18.3967 193.214 18.0833 193.587 17.87C193.96 17.65 194.404 17.54 194.917 17.54C195.404 17.54 195.83 17.65 196.197 17.87C196.57 18.0833 196.86 18.3967 197.067 18.81C197.28 19.2167 197.387 19.7167 197.387 20.31ZM193.337 20.31C193.337 20.73 193.39 21.0967 193.497 21.41C193.61 21.7167 193.784 21.9533 194.017 22.12C194.25 22.2867 194.547 22.37 194.907 22.37C195.267 22.37 195.564 22.2867 195.797 22.12C196.03 21.9533 196.2 21.7167 196.307 21.41C196.42 21.0967 196.477 20.73 196.477 20.31C196.477 19.8833 196.42 19.52 196.307 19.22C196.194 18.92 196.02 18.69 195.787 18.53C195.56 18.3633 195.264 18.28 194.897 18.28C194.35 18.28 193.954 18.46 193.707 18.82C193.46 19.18 193.337 19.6767 193.337 20.31ZM200.192 17.54C200.598 17.54 200.952 17.5967 201.252 17.71C201.552 17.8167 201.785 17.9767 201.952 18.19C202.118 18.3967 202.202 18.65 202.202 18.95C202.202 19.2767 202.112 19.5367 201.932 19.73C201.752 19.9167 201.505 20.0533 201.192 20.14V20.18C201.405 20.24 201.602 20.3233 201.782 20.43C201.962 20.5367 202.105 20.6767 202.212 20.85C202.325 21.0233 202.382 21.2467 202.382 21.52C202.382 21.8133 202.298 22.08 202.132 22.32C201.972 22.56 201.722 22.75 201.382 22.89C201.048 23.03 200.618 23.1 200.092 23.1C199.838 23.1 199.595 23.0867 199.362 23.06C199.135 23.0333 198.928 22.9933 198.742 22.94C198.562 22.8867 198.402 22.8233 198.262 22.75V21.96C198.488 22.0667 198.755 22.1633 199.062 22.25C199.375 22.3367 199.715 22.38 200.082 22.38C200.348 22.38 200.588 22.35 200.802 22.29C201.022 22.23 201.195 22.1367 201.322 22.01C201.448 21.8767 201.512 21.6967 201.512 21.47C201.512 21.2633 201.455 21.0967 201.342 20.97C201.228 20.8367 201.058 20.7367 200.832 20.67C200.612 20.6033 200.328 20.57 199.982 20.57H199.262V19.85H199.842C200.302 19.85 200.668 19.79 200.942 19.67C201.222 19.5433 201.362 19.33 201.362 19.03C201.362 18.7767 201.255 18.5867 201.042 18.46C200.835 18.3333 200.535 18.27 200.142 18.27C199.848 18.27 199.588 18.3 199.362 18.36C199.142 18.4133 198.898 18.4967 198.632 18.61L198.322 17.91C198.608 17.7833 198.908 17.69 199.222 17.63C199.535 17.57 199.858 17.54 200.192 17.54ZM204.564 17.64V19.87H207.474V17.64H208.354V23H207.474V20.61H204.564V23H203.684V17.64H204.564ZM210.051 23V17.64H210.931V19.84H212.321C212.788 19.84 213.171 19.8967 213.471 20.01C213.771 20.1233 213.995 20.2933 214.141 20.52C214.288 20.74 214.361 21.02 214.361 21.36C214.361 21.6933 214.288 21.9833 214.141 22.23C214.001 22.4767 213.778 22.6667 213.471 22.8C213.171 22.9333 212.775 23 212.281 23H210.051ZM212.201 22.29C212.581 22.29 212.891 22.2267 213.131 22.1C213.371 21.9667 213.491 21.7367 213.491 21.41C213.491 21.0833 213.381 20.8633 213.161 20.75C212.941 20.63 212.625 20.57 212.211 20.57H210.931V22.29H212.201ZM215.251 23V17.64H216.131V23H215.251ZM223.584 17.64V23H222.794V19.58C222.794 19.44 222.798 19.2933 222.804 19.14C222.818 18.9867 222.831 18.8367 222.844 18.69H222.814L221.064 23H220.324L218.624 18.69H218.594C218.608 18.8367 218.614 18.9867 218.614 19.14C218.621 19.2933 218.624 19.45 218.624 19.61V23H217.834V17.64H219.004L220.694 21.95L222.414 17.64H223.584ZM234.265 17.64V23H226.995V17.64H227.875V22.26H230.185V17.64H231.065V22.26H233.385V17.64H234.265ZM236.809 20.91C236.809 20.97 236.806 21.0567 236.799 21.17C236.799 21.2767 236.796 21.3933 236.789 21.52C236.782 21.64 236.776 21.7567 236.769 21.87C236.762 21.9767 236.756 22.0633 236.749 22.13L239.619 17.64H240.699V23H239.879V19.84C239.879 19.7333 239.879 19.5933 239.879 19.42C239.886 19.2467 239.892 19.0767 239.899 18.91C239.906 18.7367 239.912 18.6067 239.919 18.52L237.069 23H235.979V17.64H236.809V20.91ZM245.605 17.56C246.138 17.6067 246.601 17.7467 246.995 17.98C247.395 18.2133 247.705 18.5267 247.925 18.92C248.145 19.3133 248.255 19.78 248.255 20.32C248.255 20.86 248.148 21.33 247.935 21.73C247.721 22.1233 247.418 22.4367 247.025 22.67C246.631 22.8967 246.158 23.0333 245.605 23.08V25.4H244.745V23.08C244.218 23.0333 243.755 22.8967 243.355 22.67C242.955 22.4367 242.645 22.1233 242.425 21.73C242.205 21.33 242.095 20.86 242.095 20.32C242.095 19.7733 242.201 19.3033 242.415 18.91C242.628 18.51 242.935 18.1967 243.335 17.97C243.735 17.7367 244.215 17.6 244.775 17.56V15.4H245.605V17.56ZM244.775 18.29C244.368 18.33 244.035 18.4333 243.775 18.6C243.515 18.7667 243.321 18.9933 243.195 19.28C243.075 19.5667 243.015 19.9133 243.015 20.32C243.015 20.72 243.075 21.0667 243.195 21.36C243.321 21.6467 243.515 21.8767 243.775 22.05C244.035 22.2167 244.368 22.32 244.775 22.36V18.29ZM245.605 22.36C246.005 22.3133 246.331 22.2067 246.585 22.04C246.845 21.8733 247.035 21.6467 247.155 21.36C247.281 21.0667 247.345 20.72 247.345 20.32C247.345 19.92 247.281 19.5767 247.155 19.29C247.028 19.0033 246.835 18.7767 246.575 18.61C246.321 18.4433 245.998 18.34 245.605 18.3V22.36ZM252.201 17.54C252.861 17.54 253.391 17.77 253.791 18.23C254.197 18.69 254.401 19.3833 254.401 20.31C254.401 20.9167 254.307 21.43 254.121 21.85C253.941 22.2633 253.684 22.5767 253.351 22.79C253.024 22.9967 252.637 23.1 252.191 23.1C251.917 23.1 251.674 23.0633 251.461 22.99C251.247 22.9167 251.064 22.8233 250.911 22.71C250.764 22.59 250.637 22.46 250.531 22.32H250.471C250.484 22.4333 250.497 22.5767 250.511 22.75C250.524 22.9233 250.531 23.0733 250.531 23.2V25.4H249.651V17.64H250.371L250.491 18.37H250.531C250.637 18.2167 250.764 18.0767 250.911 17.95C251.064 17.8233 251.244 17.7233 251.451 17.65C251.664 17.5767 251.914 17.54 252.201 17.54ZM252.041 18.28C251.681 18.28 251.391 18.35 251.171 18.49C250.951 18.6233 250.791 18.8267 250.691 19.1C250.591 19.3733 250.537 19.72 250.531 20.14V20.31C250.531 20.75 250.577 21.1233 250.671 21.43C250.764 21.7367 250.921 21.97 251.141 22.13C251.367 22.29 251.674 22.37 252.061 22.37C252.387 22.37 252.654 22.28 252.861 22.1C253.074 21.92 253.231 21.6767 253.331 21.37C253.437 21.0567 253.491 20.7 253.491 20.3C253.491 19.6867 253.371 19.1967 253.131 18.83C252.897 18.4633 252.534 18.28 252.041 18.28ZM260.463 20.31C260.463 20.7567 260.403 21.1533 260.283 21.5C260.17 21.84 260.003 22.13 259.783 22.37C259.57 22.61 259.306 22.7933 258.993 22.92C258.686 23.04 258.343 23.1 257.963 23.1C257.61 23.1 257.283 23.04 256.983 22.92C256.683 22.7933 256.423 22.61 256.203 22.37C255.983 22.13 255.81 21.84 255.683 21.5C255.563 21.1533 255.503 20.7567 255.503 20.31C255.503 19.7167 255.603 19.2167 255.803 18.81C256.003 18.3967 256.29 18.0833 256.663 17.87C257.036 17.65 257.48 17.54 257.993 17.54C258.48 17.54 258.906 17.65 259.273 17.87C259.646 18.0833 259.936 18.3967 260.143 18.81C260.356 19.2167 260.463 19.7167 260.463 20.31ZM256.413 20.31C256.413 20.73 256.466 21.0967 256.573 21.41C256.686 21.7167 256.86 21.9533 257.093 22.12C257.326 22.2867 257.623 22.37 257.983 22.37C258.343 22.37 258.64 22.2867 258.873 22.12C259.106 21.9533 259.276 21.7167 259.383 21.41C259.496 21.0967 259.553 20.73 259.553 20.31C259.553 19.8833 259.496 19.52 259.383 19.22C259.27 18.92 259.096 18.69 258.863 18.53C258.636 18.3633 258.34 18.28 257.973 18.28C257.426 18.28 257.03 18.46 256.783 18.82C256.536 19.18 256.413 19.6767 256.413 20.31ZM266.168 18.99C266.168 19.3233 266.068 19.5833 265.868 19.77C265.668 19.9567 265.411 20.0833 265.098 20.15V20.19C265.431 20.2367 265.721 20.3567 265.968 20.55C266.214 20.7367 266.338 21.03 266.338 21.43C266.338 21.6567 266.294 21.8667 266.208 22.06C266.128 22.2533 266.001 22.42 265.828 22.56C265.654 22.7 265.431 22.81 265.158 22.89C264.884 22.9633 264.554 23 264.168 23H261.858V17.64H264.158C264.538 17.64 264.878 17.6833 265.178 17.77C265.484 17.85 265.724 17.99 265.898 18.19C266.078 18.3833 266.168 18.65 266.168 18.99ZM265.428 21.43C265.428 21.1233 265.311 20.9033 265.078 20.77C264.844 20.6367 264.501 20.57 264.048 20.57H262.738V22.29H264.068C264.508 22.29 264.844 22.2267 265.078 22.1C265.311 21.9667 265.428 21.7433 265.428 21.43ZM265.278 19.1C265.278 18.8467 265.184 18.6633 264.998 18.55C264.818 18.43 264.521 18.37 264.108 18.37H262.738V19.84H263.948C264.381 19.84 264.711 19.78 264.938 19.66C265.164 19.54 265.278 19.3533 265.278 19.1ZM269.65 17.55C270.303 17.55 270.786 17.6933 271.1 17.98C271.413 18.2667 271.57 18.7233 271.57 19.35V23H270.93L270.76 22.24H270.72C270.566 22.4333 270.406 22.5967 270.24 22.73C270.08 22.8567 269.893 22.95 269.68 23.01C269.473 23.07 269.22 23.1 268.92 23.1C268.6 23.1 268.31 23.0433 268.05 22.93C267.796 22.8167 267.596 22.6433 267.45 22.41C267.303 22.17 267.23 21.87 267.23 21.51C267.23 20.9767 267.44 20.5667 267.86 20.28C268.28 19.9867 268.926 19.8267 269.8 19.8L270.71 19.77V19.45C270.71 19.0033 270.613 18.6933 270.42 18.52C270.226 18.3467 269.953 18.26 269.6 18.26C269.32 18.26 269.053 18.3033 268.8 18.39C268.546 18.47 268.31 18.5633 268.09 18.67L267.82 18.01C268.053 17.8833 268.33 17.7767 268.65 17.69C268.97 17.5967 269.303 17.55 269.65 17.55ZM269.91 20.41C269.243 20.4367 268.78 20.5433 268.52 20.73C268.266 20.9167 268.14 21.18 268.14 21.52C268.14 21.82 268.23 22.04 268.41 22.18C268.596 22.32 268.833 22.39 269.12 22.39C269.573 22.39 269.95 22.2667 270.25 22.02C270.55 21.7667 270.7 21.38 270.7 20.86V20.38L269.91 20.41ZM274.105 17.64V19.87H277.015V17.64H277.895V23H277.015V20.61H274.105V23H273.225V17.64H274.105ZM280.422 20.91C280.422 20.97 280.419 21.0567 280.412 21.17C280.412 21.2767 280.409 21.3933 280.402 21.52C280.396 21.64 280.389 21.7567 280.382 21.87C280.376 21.9767 280.369 22.0633 280.362 22.13L283.232 17.64H284.312V23H283.492V19.84C283.492 19.7333 283.492 19.5933 283.492 19.42C283.499 19.2467 283.506 19.0767 283.512 18.91C283.519 18.7367 283.526 18.6067 283.532 18.52L280.682 23H279.592V17.64H280.422V20.91ZM288.088 17.54C288.548 17.54 288.941 17.64 289.268 17.84C289.601 18.04 289.855 18.3233 290.028 18.69C290.208 19.05 290.298 19.4733 290.298 19.96V20.49H286.628C286.641 21.0967 286.795 21.56 287.088 21.88C287.388 22.1933 287.805 22.35 288.338 22.35C288.678 22.35 288.978 22.32 289.238 22.26C289.505 22.1933 289.778 22.1 290.058 21.98V22.75C289.785 22.87 289.515 22.9567 289.248 23.01C288.981 23.07 288.665 23.1 288.298 23.1C287.791 23.1 287.341 22.9967 286.948 22.79C286.561 22.5833 286.258 22.2767 286.038 21.87C285.825 21.4567 285.718 20.9533 285.718 20.36C285.718 19.7733 285.815 19.27 286.008 18.85C286.208 18.43 286.485 18.1067 286.838 17.88C287.198 17.6533 287.615 17.54 288.088 17.54ZM288.078 18.26C287.658 18.26 287.325 18.3967 287.078 18.67C286.838 18.9367 286.695 19.31 286.648 19.79H289.378C289.378 19.4833 289.331 19.2167 289.238 18.99C289.145 18.7633 289.001 18.5867 288.808 18.46C288.621 18.3267 288.378 18.26 288.078 18.26ZM297.413 17.64V23H296.623V19.58C296.623 19.44 296.626 19.2933 296.633 19.14C296.646 18.9867 296.659 18.8367 296.673 18.69H296.643L294.893 23H294.153L292.453 18.69H292.423C292.436 18.8367 292.443 18.9867 292.443 19.14C292.449 19.2933 292.453 19.45 292.453 19.61V23H291.663V17.64H292.833L294.523 21.95L296.243 17.64H297.413ZM299.303 23V21.9H300.103V23H299.303ZM309.264 23H308.364V19.67H304.704V23H303.804V15.86H304.704V18.88H308.364V15.86H309.264V23ZM311.926 20.91C311.926 20.97 311.923 21.0567 311.916 21.17C311.916 21.2767 311.913 21.3933 311.906 21.52C311.899 21.64 311.893 21.7567 311.886 21.87C311.879 21.9767 311.873 22.0633 311.866 22.13L314.736 17.64H315.816V23H314.996V19.84C314.996 19.7333 314.996 19.5933 314.996 19.42C315.003 19.2467 315.009 19.0767 315.016 18.91C315.023 18.7367 315.029 18.6067 315.036 18.52L312.186 23H311.096V17.64H311.926V20.91ZM320.692 17.64H321.652L319.362 20.22L321.842 23H320.822L318.402 20.28V23H317.522V17.64H318.402V20.24L320.692 17.64ZM326.515 18.38H324.765V23H323.895V18.38H322.165V17.64H326.515V18.38ZM332.133 20.31C332.133 20.7567 332.073 21.1533 331.953 21.5C331.84 21.84 331.673 22.13 331.453 22.37C331.24 22.61 330.976 22.7933 330.663 22.92C330.356 23.04 330.013 23.1 329.633 23.1C329.28 23.1 328.953 23.04 328.653 22.92C328.353 22.7933 328.093 22.61 327.873 22.37C327.653 22.13 327.48 21.84 327.353 21.5C327.233 21.1533 327.173 20.7567 327.173 20.31C327.173 19.7167 327.273 19.2167 327.473 18.81C327.673 18.3967 327.96 18.0833 328.333 17.87C328.706 17.65 329.15 17.54 329.663 17.54C330.15 17.54 330.576 17.65 330.943 17.87C331.316 18.0833 331.606 18.3967 331.813 18.81C332.026 19.2167 332.133 19.7167 332.133 20.31ZM328.083 20.31C328.083 20.73 328.136 21.0967 328.243 21.41C328.356 21.7167 328.53 21.9533 328.763 22.12C328.996 22.2867 329.293 22.37 329.653 22.37C330.013 22.37 330.31 22.2867 330.543 22.12C330.776 21.9533 330.946 21.7167 331.053 21.41C331.166 21.0967 331.223 20.73 331.223 20.31C331.223 19.8833 331.166 19.52 331.053 19.22C330.94 18.92 330.766 18.69 330.533 18.53C330.306 18.3633 330.01 18.28 329.643 18.28C329.096 18.28 328.7 18.46 328.453 18.82C328.206 19.18 328.083 19.6767 328.083 20.31ZM336.637 17.54C337.044 17.54 337.397 17.5967 337.697 17.71C337.997 17.8167 338.23 17.9767 338.397 18.19C338.564 18.3967 338.647 18.65 338.647 18.95C338.647 19.2767 338.557 19.5367 338.377 19.73C338.197 19.9167 337.95 20.0533 337.637 20.14V20.18C337.85 20.24 338.047 20.3233 338.227 20.43C338.407 20.5367 338.55 20.6767 338.657 20.85C338.77 21.0233 338.827 21.2467 338.827 21.52C338.827 21.8133 338.744 22.08 338.577 22.32C338.417 22.56 338.167 22.75 337.827 22.89C337.494 23.03 337.064 23.1 336.537 23.1C336.284 23.1 336.04 23.0867 335.807 23.06C335.58 23.0333 335.374 22.9933 335.187 22.94C335.007 22.8867 334.847 22.8233 334.707 22.75V21.96C334.934 22.0667 335.2 22.1633 335.507 22.25C335.82 22.3367 336.16 22.38 336.527 22.38C336.794 22.38 337.034 22.35 337.247 22.29C337.467 22.23 337.64 22.1367 337.767 22.01C337.894 21.8767 337.957 21.6967 337.957 21.47C337.957 21.2633 337.9 21.0967 337.787 20.97C337.674 20.8367 337.504 20.7367 337.277 20.67C337.057 20.6033 336.774 20.57 336.427 20.57H335.707V19.85H336.287C336.747 19.85 337.114 19.79 337.387 19.67C337.667 19.5433 337.807 19.33 337.807 19.03C337.807 18.7767 337.7 18.5867 337.487 18.46C337.28 18.3333 336.98 18.27 336.587 18.27C336.294 18.27 336.034 18.3 335.807 18.36C335.587 18.4133 335.344 18.4967 335.077 18.61L334.767 17.91C335.054 17.7833 335.354 17.69 335.667 17.63C335.98 17.57 336.304 17.54 336.637 17.54ZM342.159 17.55C342.813 17.55 343.296 17.6933 343.609 17.98C343.923 18.2667 344.079 18.7233 344.079 19.35V23H343.439L343.269 22.24H343.229C343.076 22.4333 342.916 22.5967 342.749 22.73C342.589 22.8567 342.403 22.95 342.189 23.01C341.983 23.07 341.729 23.1 341.429 23.1C341.109 23.1 340.819 23.0433 340.559 22.93C340.306 22.8167 340.106 22.6433 339.959 22.41C339.813 22.17 339.739 21.87 339.739 21.51C339.739 20.9767 339.949 20.5667 340.369 20.28C340.789 19.9867 341.436 19.8267 342.309 19.8L343.219 19.77V19.45C343.219 19.0033 343.123 18.6933 342.929 18.52C342.736 18.3467 342.463 18.26 342.109 18.26C341.829 18.26 341.563 18.3033 341.309 18.39C341.056 18.47 340.819 18.5633 340.599 18.67L340.329 18.01C340.563 17.8833 340.839 17.7767 341.159 17.69C341.479 17.5967 341.813 17.55 342.159 17.55ZM342.419 20.41C341.753 20.4367 341.289 20.5433 341.029 20.73C340.776 20.9167 340.649 21.18 340.649 21.52C340.649 21.82 340.739 22.04 340.919 22.18C341.106 22.32 341.343 22.39 341.629 22.39C342.083 22.39 342.459 22.2667 342.759 22.02C343.059 21.7667 343.209 21.38 343.209 20.86V20.38L342.419 20.41ZM351.964 17.64V23H351.084V18.39H348.314V23H347.434V17.64H351.964ZM356.224 17.54C356.884 17.54 357.414 17.77 357.814 18.23C358.221 18.69 358.424 19.3833 358.424 20.31C358.424 20.9167 358.331 21.43 358.144 21.85C357.964 22.2633 357.708 22.5767 357.374 22.79C357.048 22.9967 356.661 23.1 356.214 23.1C355.941 23.1 355.698 23.0633 355.484 22.99C355.271 22.9167 355.088 22.8233 354.934 22.71C354.788 22.59 354.661 22.46 354.554 22.32H354.494C354.508 22.4333 354.521 22.5767 354.534 22.75C354.548 22.9233 354.554 23.0733 354.554 23.2V25.4H353.674V17.64H354.394L354.514 18.37H354.554C354.661 18.2167 354.788 18.0767 354.934 17.95C355.088 17.8233 355.268 17.7233 355.474 17.65C355.688 17.5767 355.938 17.54 356.224 17.54ZM356.064 18.28C355.704 18.28 355.414 18.35 355.194 18.49C354.974 18.6233 354.814 18.8267 354.714 19.1C354.614 19.3733 354.561 19.72 354.554 20.14V20.31C354.554 20.75 354.601 21.1233 354.694 21.43C354.788 21.7367 354.944 21.97 355.164 22.13C355.391 22.29 355.698 22.37 356.084 22.37C356.411 22.37 356.678 22.28 356.884 22.1C357.098 21.92 357.254 21.6767 357.354 21.37C357.461 21.0567 357.514 20.7 357.514 20.3C357.514 19.6867 357.394 19.1967 357.154 18.83C356.921 18.4633 356.558 18.28 356.064 18.28ZM361.897 17.54C362.357 17.54 362.75 17.64 363.077 17.84C363.41 18.04 363.663 18.3233 363.837 18.69C364.017 19.05 364.107 19.4733 364.107 19.96V20.49H360.437C360.45 21.0967 360.603 21.56 360.897 21.88C361.197 22.1933 361.613 22.35 362.147 22.35C362.487 22.35 362.787 22.32 363.047 22.26C363.313 22.1933 363.587 22.1 363.867 21.98V22.75C363.593 22.87 363.323 22.9567 363.057 23.01C362.79 23.07 362.473 23.1 362.107 23.1C361.6 23.1 361.15 22.9967 360.757 22.79C360.37 22.5833 360.067 22.2767 359.847 21.87C359.633 21.4567 359.527 20.9533 359.527 20.36C359.527 19.7733 359.623 19.27 359.817 18.85C360.017 18.43 360.293 18.1067 360.647 17.88C361.007 17.6533 361.423 17.54 361.897 17.54ZM361.887 18.26C361.467 18.26 361.133 18.3967 360.887 18.67C360.647 18.9367 360.503 19.31 360.457 19.79H363.187C363.187 19.4833 363.14 19.2167 363.047 18.99C362.953 18.7633 362.81 18.5867 362.617 18.46C362.43 18.3267 362.187 18.26 361.887 18.26ZM369.451 17.64V22.26H370.231V24.86H369.381V23H365.651V24.86H364.811V22.26H365.241C365.548 21.8333 365.801 21.37 366.001 20.87C366.208 20.3633 366.361 19.8367 366.461 19.29C366.568 18.7367 366.624 18.1867 366.631 17.64H369.451ZM367.411 18.33C367.384 18.7833 367.314 19.2533 367.201 19.74C367.088 20.22 366.941 20.68 366.761 21.12C366.588 21.56 366.384 21.94 366.151 22.26H368.601V18.33H367.411ZM373.352 17.54C373.812 17.54 374.205 17.64 374.532 17.84C374.865 18.04 375.118 18.3233 375.292 18.69C375.472 19.05 375.562 19.4733 375.562 19.96V20.49H371.892C371.905 21.0967 372.058 21.56 372.352 21.88C372.652 22.1933 373.068 22.35 373.602 22.35C373.942 22.35 374.242 22.32 374.502 22.26C374.768 22.1933 375.042 22.1 375.322 21.98V22.75C375.048 22.87 374.778 22.9567 374.512 23.01C374.245 23.07 373.928 23.1 373.562 23.1C373.055 23.1 372.605 22.9967 372.212 22.79C371.825 22.5833 371.522 22.2767 371.302 21.87C371.088 21.4567 370.982 20.9533 370.982 20.36C370.982 19.7733 371.078 19.27 371.272 18.85C371.472 18.43 371.748 18.1067 372.102 17.88C372.462 17.6533 372.878 17.54 373.352 17.54ZM373.342 18.26C372.922 18.26 372.588 18.3967 372.342 18.67C372.102 18.9367 371.958 19.31 371.912 19.79H374.642C374.642 19.4833 374.595 19.2167 374.502 18.99C374.408 18.7633 374.265 18.5867 374.072 18.46C373.885 18.3267 373.642 18.26 373.342 18.26ZM381.006 23H380.116V18.37H378.536C378.47 19.2167 378.386 19.94 378.286 20.54C378.186 21.1333 378.06 21.6167 377.906 21.99C377.753 22.3633 377.57 22.6367 377.356 22.81C377.143 22.9833 376.893 23.07 376.606 23.07C376.52 23.07 376.433 23.0633 376.346 23.05C376.266 23.0433 376.2 23.0267 376.146 23V22.34C376.186 22.3533 376.23 22.3633 376.276 22.37C376.323 22.3767 376.37 22.38 376.416 22.38C376.563 22.38 376.696 22.32 376.816 22.2C376.936 22.08 377.043 21.8967 377.136 21.65C377.236 21.4033 377.326 21.0933 377.406 20.72C377.486 20.34 377.556 19.8933 377.616 19.38C377.676 18.8667 377.73 18.2867 377.776 17.64H381.006V23ZM384.737 17.55C385.391 17.55 385.874 17.6933 386.187 17.98C386.501 18.2667 386.657 18.7233 386.657 19.35V23H386.017L385.847 22.24H385.807C385.654 22.4333 385.494 22.5967 385.327 22.73C385.167 22.8567 384.981 22.95 384.767 23.01C384.561 23.07 384.307 23.1 384.007 23.1C383.687 23.1 383.397 23.0433 383.137 22.93C382.884 22.8167 382.684 22.6433 382.537 22.41C382.391 22.17 382.317 21.87 382.317 21.51C382.317 20.9767 382.527 20.5667 382.947 20.28C383.367 19.9867 384.014 19.8267 384.887 19.8L385.797 19.77V19.45C385.797 19.0033 385.701 18.6933 385.507 18.52C385.314 18.3467 385.041 18.26 384.687 18.26C384.407 18.26 384.141 18.3033 383.887 18.39C383.634 18.47 383.397 18.5633 383.177 18.67L382.907 18.01C383.141 17.8833 383.417 17.7767 383.737 17.69C384.057 17.5967 384.391 17.55 384.737 17.55ZM384.997 20.41C384.331 20.4367 383.867 20.5433 383.607 20.73C383.354 20.9167 383.227 21.18 383.227 21.52C383.227 21.82 383.317 22.04 383.497 22.18C383.684 22.32 383.921 22.39 384.207 22.39C384.661 22.39 385.037 22.2667 385.337 22.02C385.637 21.7667 385.787 21.38 385.787 20.86V20.38L384.997 20.41ZM394.063 17.64V23H393.273V19.58C393.273 19.44 393.276 19.2933 393.283 19.14C393.296 18.9867 393.31 18.8367 393.323 18.69H393.293L391.543 23H390.803L389.103 18.69H389.073C389.086 18.8367 389.093 18.9867 389.093 19.14C389.1 19.2933 389.103 19.45 389.103 19.61V23H388.313V17.64H389.483L391.173 21.95L392.893 17.64H394.063ZM396.604 20.91C396.604 20.97 396.6 21.0567 396.594 21.17C396.594 21.2767 396.59 21.3933 396.584 21.52C396.577 21.64 396.57 21.7567 396.564 21.87C396.557 21.9767 396.55 22.0633 396.544 22.13L399.414 17.64H400.494V23H399.674V19.84C399.674 19.7333 399.674 19.5933 399.674 19.42C399.68 19.2467 399.687 19.0767 399.694 18.91C399.7 18.7367 399.707 18.6067 399.714 18.52L396.864 23H395.774V17.64H396.604V20.91ZM404.759 23.1C404.452 23.1 404.185 23.0733 403.959 23.02C403.739 22.9733 403.532 22.9033 403.339 22.81V22.05C403.539 22.13 403.755 22.2 403.989 22.26C404.222 22.32 404.485 22.35 404.779 22.35C405.125 22.35 405.425 22.29 405.679 22.17C405.932 22.0433 406.132 21.85 406.279 21.59C406.425 21.33 406.509 21 406.529 20.6H403.889V19.88H406.519C406.472 19.3333 406.315 18.9333 406.049 18.68C405.789 18.4267 405.405 18.3 404.899 18.3C404.705 18.3 404.492 18.3267 404.259 18.38C404.032 18.4333 403.829 18.4933 403.649 18.56L403.399 17.85C403.592 17.7633 403.822 17.69 404.089 17.63C404.355 17.57 404.622 17.54 404.889 17.54C405.389 17.54 405.829 17.6333 406.209 17.82C406.595 18.0067 406.895 18.3033 407.109 18.71C407.329 19.1167 407.439 19.6533 407.439 20.32C407.439 20.9533 407.322 21.4767 407.089 21.89C406.862 22.3033 406.545 22.61 406.139 22.81C405.739 23.0033 405.279 23.1 404.759 23.1ZM412.443 18.38H410.693V23H409.823V18.38H408.093V17.64H412.443V18.38ZM418.061 20.31C418.061 20.7567 418.001 21.1533 417.881 21.5C417.767 21.84 417.601 22.13 417.381 22.37C417.167 22.61 416.904 22.7933 416.591 22.92C416.284 23.04 415.941 23.1 415.561 23.1C415.207 23.1 414.881 23.04 414.581 22.92C414.281 22.7933 414.021 22.61 413.801 22.37C413.581 22.13 413.407 21.84 413.281 21.5C413.161 21.1533 413.101 20.7567 413.101 20.31C413.101 19.7167 413.201 19.2167 413.401 18.81C413.601 18.3967 413.887 18.0833 414.261 17.87C414.634 17.65 415.077 17.54 415.591 17.54C416.077 17.54 416.504 17.65 416.871 17.87C417.244 18.0833 417.534 18.3967 417.741 18.81C417.954 19.2167 418.061 19.7167 418.061 20.31ZM414.011 20.31C414.011 20.73 414.064 21.0967 414.171 21.41C414.284 21.7167 414.457 21.9533 414.691 22.12C414.924 22.2867 415.221 22.37 415.581 22.37C415.941 22.37 416.237 22.2867 416.471 22.12C416.704 21.9533 416.874 21.7167 416.981 21.41C417.094 21.0967 417.151 20.73 417.151 20.31C417.151 19.8833 417.094 19.52 416.981 19.22C416.867 18.92 416.694 18.69 416.461 18.53C416.234 18.3633 415.937 18.28 415.571 18.28C415.024 18.28 414.627 18.46 414.381 18.82C414.134 19.18 414.011 19.6767 414.011 20.31ZM422.725 17.64V18.38H420.335V23H419.455V17.64H422.725ZM428.344 20.31C428.344 20.7567 428.284 21.1533 428.164 21.5C428.051 21.84 427.884 22.13 427.664 22.37C427.451 22.61 427.187 22.7933 426.874 22.92C426.567 23.04 426.224 23.1 425.844 23.1C425.491 23.1 425.164 23.04 424.864 22.92C424.564 22.7933 424.304 22.61 424.084 22.37C423.864 22.13 423.691 21.84 423.564 21.5C423.444 21.1533 423.384 20.7567 423.384 20.31C423.384 19.7167 423.484 19.2167 423.684 18.81C423.884 18.3967 424.171 18.0833 424.544 17.87C424.917 17.65 425.361 17.54 425.874 17.54C426.361 17.54 426.787 17.65 427.154 17.87C427.527 18.0833 427.817 18.3967 428.024 18.81C428.237 19.2167 428.344 19.7167 428.344 20.31ZM424.294 20.31C424.294 20.73 424.347 21.0967 424.454 21.41C424.567 21.7167 424.741 21.9533 424.974 22.12C425.207 22.2867 425.504 22.37 425.864 22.37C426.224 22.37 426.521 22.2867 426.754 22.12C426.987 21.9533 427.157 21.7167 427.264 21.41C427.377 21.0967 427.434 20.73 427.434 20.31C427.434 19.8833 427.377 19.52 427.264 19.22C427.151 18.92 426.977 18.69 426.744 18.53C426.517 18.3633 426.221 18.28 425.854 18.28C425.307 18.28 424.911 18.46 424.664 18.82C424.417 19.18 424.294 19.6767 424.294 20.31ZM432.208 19.59C432.208 19.9033 432.295 20.1367 432.468 20.29C432.648 20.4367 432.905 20.51 433.238 20.51C433.571 20.51 433.875 20.46 434.148 20.36C434.421 20.2533 434.701 20.1133 434.988 19.94V17.64H435.868V23H434.988V20.61C434.688 20.8033 434.391 20.9567 434.098 21.07C433.811 21.1767 433.465 21.23 433.058 21.23C432.511 21.23 432.085 21.0867 431.778 20.8C431.478 20.5133 431.328 20.13 431.328 19.65V17.64H432.208V19.59ZM439.601 17.55C440.254 17.55 440.737 17.6933 441.051 17.98C441.364 18.2667 441.521 18.7233 441.521 19.35V23H440.881L440.711 22.24H440.671C440.517 22.4333 440.357 22.5967 440.191 22.73C440.031 22.8567 439.844 22.95 439.631 23.01C439.424 23.07 439.171 23.1 438.871 23.1C438.551 23.1 438.261 23.0433 438.001 22.93C437.747 22.8167 437.547 22.6433 437.401 22.41C437.254 22.17 437.181 21.87 437.181 21.51C437.181 20.9767 437.391 20.5667 437.811 20.28C438.231 19.9867 438.877 19.8267 439.751 19.8L440.661 19.77V19.45C440.661 19.0033 440.564 18.6933 440.371 18.52C440.177 18.3467 439.904 18.26 439.551 18.26C439.271 18.26 439.004 18.3033 438.751 18.39C438.497 18.47 438.261 18.5633 438.041 18.67L437.771 18.01C438.004 17.8833 438.281 17.7767 438.601 17.69C438.921 17.5967 439.254 17.55 439.601 17.55ZM439.861 20.41C439.194 20.4367 438.731 20.5433 438.471 20.73C438.217 20.9167 438.091 21.18 438.091 21.52C438.091 21.82 438.181 22.04 438.361 22.18C438.547 22.32 438.784 22.39 439.071 22.39C439.524 22.39 439.901 22.2667 440.201 22.02C440.501 21.7667 440.651 21.38 440.651 20.86V20.38L439.861 20.41ZM446.876 18.38H445.126V23H444.256V18.38H442.526V17.64H446.876V18.38ZM449.962 17.55C450.615 17.55 451.099 17.6933 451.412 17.98C451.725 18.2667 451.882 18.7233 451.882 19.35V23H451.242L451.072 22.24H451.032C450.879 22.4333 450.719 22.5967 450.552 22.73C450.392 22.8567 450.205 22.95 449.992 23.01C449.785 23.07 449.532 23.1 449.232 23.1C448.912 23.1 448.622 23.0433 448.362 22.93C448.109 22.8167 447.909 22.6433 447.762 22.41C447.615 22.17 447.542 21.87 447.542 21.51C447.542 20.9767 447.752 20.5667 448.172 20.28C448.592 19.9867 449.239 19.8267 450.112 19.8L451.022 19.77V19.45C451.022 19.0033 450.925 18.6933 450.732 18.52C450.539 18.3467 450.265 18.26 449.912 18.26C449.632 18.26 449.365 18.3033 449.112 18.39C448.859 18.47 448.622 18.5633 448.402 18.67L448.132 18.01C448.365 17.8833 448.642 17.7767 448.962 17.69C449.282 17.5967 449.615 17.55 449.962 17.55ZM450.222 20.41C449.555 20.4367 449.092 20.5433 448.832 20.73C448.579 20.9167 448.452 21.18 448.452 21.52C448.452 21.82 448.542 22.04 448.722 22.18C448.909 22.32 449.145 22.39 449.432 22.39C449.885 22.39 450.262 22.2667 450.562 22.02C450.862 21.7667 451.012 21.38 451.012 20.86V20.38L450.222 20.41ZM453.488 24.3V23.95C453.688 23.8967 453.834 23.7933 453.928 23.64C454.021 23.4867 454.068 23.2733 454.068 23H453.688V21.9H454.488V22.74C454.488 23.1733 454.404 23.52 454.238 23.78C454.071 24.0467 453.821 24.22 453.488 24.3ZM59.73 30.64V32.87H62.64V30.64H63.52V36H62.64V33.61H59.73V36H58.85V30.64H59.73ZM67.2872 30.54C67.7472 30.54 68.1405 30.64 68.4672 30.84C68.8005 31.04 69.0539 31.3233 69.2272 31.69C69.4072 32.05 69.4972 32.4733 69.4972 32.96V33.49H65.8272C65.8405 34.0967 65.9939 34.56 66.2872 34.88C66.5872 35.1933 67.0039 35.35 67.5372 35.35C67.8772 35.35 68.1772 35.32 68.4372 35.26C68.7039 35.1933 68.9772 35.1 69.2572 34.98V35.75C68.9839 35.87 68.7139 35.9567 68.4472 36.01C68.1805 36.07 67.8639 36.1 67.4972 36.1C66.9905 36.1 66.5405 35.9967 66.1472 35.79C65.7605 35.5833 65.4572 35.2767 65.2372 34.87C65.0239 34.4567 64.9172 33.9533 64.9172 33.36C64.9172 32.7733 65.0139 32.27 65.2072 31.85C65.4072 31.43 65.6839 31.1067 66.0372 30.88C66.3972 30.6533 66.8139 30.54 67.2872 30.54ZM67.2772 31.26C66.8572 31.26 66.5239 31.3967 66.2772 31.67C66.0372 31.9367 65.8939 32.31 65.8472 32.79H68.5772C68.5772 32.4833 68.5305 32.2167 68.4372 31.99C68.3439 31.7633 68.2005 31.5867 68.0072 31.46C67.8205 31.3267 67.5772 31.26 67.2772 31.26ZM78.3109 30.64V36H77.5209V32.58C77.5209 32.44 77.5243 32.2933 77.5309 32.14C77.5443 31.9867 77.5576 31.8367 77.5709 31.69H77.5409L75.7909 36H75.0509L73.3509 31.69H73.3209C73.3343 31.8367 73.3409 31.9867 73.3409 32.14C73.3476 32.2933 73.3509 32.45 73.3509 32.61V36H72.5609V30.64H73.7309L75.4209 34.95L77.1409 30.64H78.3109ZM84.6819 33.31C84.6819 33.7567 84.6219 34.1533 84.5019 34.5C84.3885 34.84 84.2219 35.13 84.0019 35.37C83.7885 35.61 83.5252 35.7933 83.2119 35.92C82.9052 36.04 82.5619 36.1 82.1819 36.1C81.8285 36.1 81.5019 36.04 81.2019 35.92C80.9019 35.7933 80.6419 35.61 80.4219 35.37C80.2019 35.13 80.0285 34.84 79.9019 34.5C79.7819 34.1533 79.7219 33.7567 79.7219 33.31C79.7219 32.7167 79.8219 32.2167 80.0219 31.81C80.2219 31.3967 80.5085 31.0833 80.8819 30.87C81.2552 30.65 81.6985 30.54 82.2119 30.54C82.6985 30.54 83.1252 30.65 83.4919 30.87C83.8652 31.0833 84.1552 31.3967 84.3619 31.81C84.5752 32.2167 84.6819 32.7167 84.6819 33.31ZM80.6319 33.31C80.6319 33.73 80.6852 34.0967 80.7919 34.41C80.9052 34.7167 81.0785 34.9533 81.3119 35.12C81.5452 35.2867 81.8419 35.37 82.2019 35.37C82.5619 35.37 82.8585 35.2867 83.0919 35.12C83.3252 34.9533 83.4952 34.7167 83.6019 34.41C83.7152 34.0967 83.7719 33.73 83.7719 33.31C83.7719 32.8833 83.7152 32.52 83.6019 32.22C83.4885 31.92 83.3152 31.69 83.0819 31.53C82.8552 31.3633 82.5585 31.28 82.1919 31.28C81.6452 31.28 81.2485 31.46 81.0019 31.82C80.7552 32.18 80.6319 32.6767 80.6319 33.31ZM92.3113 30.64L90.1013 33.24L92.5013 36H91.5013L89.1813 33.28V36H88.3613V33.28L86.0413 36H85.0413L87.4413 33.24L85.2313 30.64H86.1913L88.3613 33.24V30.64H89.1813V33.24L91.3613 30.64H92.3113ZM95.2559 30.54C95.7159 30.54 96.1093 30.64 96.4359 30.84C96.7693 31.04 97.0226 31.3233 97.1959 31.69C97.3759 32.05 97.4659 32.4733 97.4659 32.96V33.49H93.7959C93.8093 34.0967 93.9626 34.56 94.2559 34.88C94.5559 35.1933 94.9726 35.35 95.5059 35.35C95.8459 35.35 96.1459 35.32 96.4059 35.26C96.6726 35.1933 96.9459 35.1 97.2259 34.98V35.75C96.9526 35.87 96.6826 35.9567 96.4159 36.01C96.1493 36.07 95.8326 36.1 95.4659 36.1C94.9593 36.1 94.5093 35.9967 94.1159 35.79C93.7293 35.5833 93.4259 35.2767 93.2059 34.87C92.9926 34.4567 92.8859 33.9533 92.8859 33.36C92.8859 32.7733 92.9826 32.27 93.1759 31.85C93.3759 31.43 93.6526 31.1067 94.0059 30.88C94.3659 30.6533 94.7826 30.54 95.2559 30.54ZM95.2459 31.26C94.8259 31.26 94.4926 31.3967 94.2459 31.67C94.0059 31.9367 93.8626 32.31 93.8159 32.79H96.5459C96.5459 32.4833 96.4993 32.2167 96.4059 31.99C96.3126 31.7633 96.1693 31.5867 95.9759 31.46C95.7893 31.3267 95.5459 31.26 95.2459 31.26ZM102.53 31.38H100.78V36H99.9105V31.38H98.1805V30.64H102.53V31.38ZM106.056 32.59C106.056 32.9033 106.142 33.1367 106.316 33.29C106.496 33.4367 106.752 33.51 107.086 33.51C107.419 33.51 107.722 33.46 107.996 33.36C108.269 33.2533 108.549 33.1133 108.836 32.94V30.64H109.716V36H108.836V33.61C108.536 33.8033 108.239 33.9567 107.946 34.07C107.659 34.1767 107.312 34.23 106.906 34.23C106.359 34.23 105.932 34.0867 105.626 33.8C105.326 33.5133 105.176 33.13 105.176 32.65V30.64H106.056V32.59ZM112.248 33.91C112.248 33.97 112.245 34.0567 112.238 34.17C112.238 34.2767 112.235 34.3933 112.228 34.52C112.222 34.64 112.215 34.7567 112.208 34.87C112.202 34.9767 112.195 35.0633 112.188 35.13L115.058 30.64H116.138V36H115.318V32.84C115.318 32.7333 115.318 32.5933 115.318 32.42C115.325 32.2467 115.332 32.0767 115.338 31.91C115.345 31.7367 115.352 31.6067 115.358 31.52L112.508 36H111.418V30.64H112.248V33.91ZM121.544 31.38H119.794V36H118.924V31.38H117.194V30.64H121.544V31.38ZM124.63 30.55C125.283 30.55 125.767 30.6933 126.08 30.98C126.393 31.2667 126.55 31.7233 126.55 32.35V36H125.91L125.74 35.24H125.7C125.547 35.4333 125.387 35.5967 125.22 35.73C125.06 35.8567 124.873 35.95 124.66 36.01C124.453 36.07 124.2 36.1 123.9 36.1C123.58 36.1 123.29 36.0433 123.03 35.93C122.777 35.8167 122.577 35.6433 122.43 35.41C122.283 35.17 122.21 34.87 122.21 34.51C122.21 33.9767 122.42 33.5667 122.84 33.28C123.26 32.9867 123.907 32.8267 124.78 32.8L125.69 32.77V32.45C125.69 32.0033 125.593 31.6933 125.4 31.52C125.207 31.3467 124.933 31.26 124.58 31.26C124.3 31.26 124.033 31.3033 123.78 31.39C123.527 31.47 123.29 31.5633 123.07 31.67L122.8 31.01C123.033 30.8833 123.31 30.7767 123.63 30.69C123.95 30.5967 124.283 30.55 124.63 30.55ZM124.89 33.41C124.223 33.4367 123.76 33.5433 123.5 33.73C123.247 33.9167 123.12 34.18 123.12 34.52C123.12 34.82 123.21 35.04 123.39 35.18C123.577 35.32 123.813 35.39 124.1 35.39C124.553 35.39 124.93 35.2667 125.23 35.02C125.53 34.7667 125.68 34.38 125.68 33.86V33.38L124.89 33.41ZM131.905 31.38H130.155V36H129.285V31.38H127.555V30.64H131.905V31.38ZM135.431 32.84C135.898 32.84 136.285 32.8967 136.591 33.01C136.898 33.1233 137.128 33.2933 137.281 33.52C137.441 33.74 137.521 34.02 137.521 34.36C137.521 34.6933 137.445 34.9833 137.291 35.23C137.145 35.4767 136.915 35.6667 136.601 35.8C136.288 35.9333 135.885 36 135.391 36H132.961V30.64H133.841V32.84H135.431ZM136.641 34.41C136.641 34.0833 136.525 33.8633 136.291 33.75C136.065 33.63 135.745 33.57 135.331 33.57H133.841V35.29H135.351C135.725 35.29 136.031 35.2233 136.271 35.09C136.518 34.9567 136.641 34.73 136.641 34.41ZM143.127 33.91C143.127 33.97 143.124 34.0567 143.117 34.17C143.117 34.2767 143.114 34.3933 143.107 34.52C143.101 34.64 143.094 34.7567 143.087 34.87C143.081 34.9767 143.074 35.0633 143.067 35.13L145.937 30.64H147.017V36H146.197V32.84C146.197 32.7333 146.197 32.5933 146.197 32.42C146.204 32.2467 146.211 32.0767 146.217 31.91C146.224 31.7367 146.231 31.6067 146.237 31.52L143.387 36H142.297V30.64H143.127V33.91ZM149.993 33.26L148.143 30.64H149.143L150.523 32.66L151.893 30.64H152.883L151.033 33.26L152.983 36H151.983L150.523 33.86L149.043 36H148.053L149.993 33.26ZM154.196 36V34.9H154.996V36H154.196Z" fill="#312E40"/>
</svg>
