<svg width="20" height="23" viewBox="0 0 20 23" fill="none" xmlns="http://www.w3.org/2000/svg">
<rect width="20" height="21.5152" transform="translate(0 0.90918)" fill="white"/>
<path d="M15.8333 10.7705H4.16667C3.24619 10.7705 2.5 11.5732 2.5 12.5634V18.8387C2.5 19.8289 3.24619 20.6316 4.16667 20.6316H15.8333C16.7538 20.6316 17.5 19.8289 17.5 18.8387V12.5634C17.5 11.5732 16.7538 10.7705 15.8333 10.7705Z" stroke="#130F26" stroke-linecap="round" stroke-linejoin="round"/>
<path d="M5.83325 10.7703V7.18447C5.83325 5.99569 6.27224 4.85559 7.05364 4.01499C7.83504 3.17439 8.89485 2.70215 9.99992 2.70215C11.105 2.70215 12.1648 3.17439 12.9462 4.01499C13.7276 4.85559 14.1666 5.99569 14.1666 7.18447V10.7703" stroke="#130F26" stroke-linecap="round" stroke-linejoin="round"/>
</svg>
